<svg width="369" height="400" viewBox="0 0 369 400" fill="none" xmlns="http://www.w3.org/2000/svg">
<g filter="url(#filter0_d_429_1541)">
<rect x="40" y="36" width="289" height="320" rx="10" fill="white"/>
</g>
<mask id="mask0_429_1541" style="mask-type:alpha" maskUnits="userSpaceOnUse" x="40" y="36" width="289" height="320">
<rect x="40" y="36" width="289" height="320" rx="10" fill="white"/>
</mask>
<g mask="url(#mask0_429_1541)">
<path d="M15.9084 281.921L25.8158 292.28L50.6594 267.385L72.8603 269.552L88.7697 236.101L112.549 216.224L122.356 239.38L137.027 218.615L149.459 226.659L168.905 221.727L182.116 198.258L192.106 207.771L210.578 201.037L221.963 202.149L231.576 191.988L247.011 204.594L272.763 170.396L280.31 181.379L288.849 182.213L295.975 203.399L312.784 166.62L322.857 175.288L335.49 157.738" stroke="#8646EE" stroke-width="0.5"/>
</g>
<g filter="url(#filter1_b_429_1541)">
<rect x="40" y="36" width="289" height="320" rx="10" fill="#EFE6FF" fill-opacity="0.04"/>
</g>
<defs>
<filter id="filter0_d_429_1541" x="0" y="0" width="369" height="400" filterUnits="userSpaceOnUse" color-interpolation-filters="sRGB">
<feFlood flood-opacity="0" result="BackgroundImageFix"/>
<feColorMatrix in="SourceAlpha" type="matrix" values="0 0 0 0 0 0 0 0 0 0 0 0 0 0 0 0 0 0 127 0" result="hardAlpha"/>
<feOffset dy="4"/>
<feGaussianBlur stdDeviation="20"/>
<feComposite in2="hardAlpha" operator="out"/>
<feColorMatrix type="matrix" values="0 0 0 0 0.683333 0 0 0 0 0.683333 0 0 0 0 0.683333 0 0 0 0.25 0"/>
<feBlend mode="normal" in2="BackgroundImageFix" result="effect1_dropShadow_429_1541"/>
<feBlend mode="normal" in="SourceGraphic" in2="effect1_dropShadow_429_1541" result="shape"/>
</filter>
<filter id="filter1_b_429_1541" x="36" y="32" width="297" height="328" filterUnits="userSpaceOnUse" color-interpolation-filters="sRGB">
<feFlood flood-opacity="0" result="BackgroundImageFix"/>
<feGaussianBlur in="BackgroundImageFix" stdDeviation="2"/>
<feComposite in2="SourceAlpha" operator="in" result="effect1_backgroundBlur_429_1541"/>
<feBlend mode="normal" in="SourceGraphic" in2="effect1_backgroundBlur_429_1541" result="shape"/>
</filter>
</defs>
</svg>
