<svg width="18" height="18" viewBox="0 0 18 18" fill="none" xmlns="http://www.w3.org/2000/svg">
<path d="M9 0C4.032 0 0 4.032 0 9C0 13.968 4.032 18 9 18C13.968 18 18 13.968 18 9C18 4.032 13.968 0 9 0ZM4.815 14.85C5.994 14.004 7.434 13.5 9 13.5C10.566 13.5 12.006 14.004 13.185 14.85C12.006 15.696 10.566 16.2 9 16.2C7.434 16.2 5.994 15.696 4.815 14.85ZM14.526 13.608C12.9496 12.3711 11.0037 11.6989 9 11.6989C6.99626 11.6989 5.05044 12.3711 3.474 13.608C2.39123 12.3168 1.79847 10.6851 1.8 9C1.8 5.022 5.022 1.8 9 1.8C12.978 1.8 16.2 5.022 16.2 9C16.2 10.755 15.57 12.357 14.526 13.608Z" fill="white"/>
<path d="M9.0001 3.60001C7.2631 3.60001 5.8501 5.01301 5.8501 6.75001C5.8501 8.48701 7.2631 9.90001 9.0001 9.90001C10.7371 9.90001 12.1501 8.48701 12.1501 6.75001C12.1501 5.01301 10.7371 3.60001 9.0001 3.60001ZM9.0001 8.10001C8.2531 8.10001 7.6501 7.49701 7.6501 6.75001C7.6501 6.00301 8.2531 5.40001 9.0001 5.40001C9.7471 5.40001 10.3501 6.00301 10.3501 6.75001C10.3501 7.49701 9.7471 8.10001 9.0001 8.10001Z" fill="white"/>
</svg>
