<svg width="22" height="26" viewBox="0 0 22 26" fill="none" xmlns="http://www.w3.org/2000/svg">
<mask id="mask0_435_3424" style="mask-type:alpha" maskUnits="userSpaceOnUse" x="0" y="10" width="21" height="15">
<path d="M1.10096 18.8047L4.80073 12.5735C5.48732 11.4172 6.70218 10.6761 8.04453 10.5947L12.4712 10.3264C14.2498 10.2186 15.9371 11.2689 16.835 12.808C17.5309 14.0009 18.5051 15.5407 19.8115 17.3915C22.2145 20.7956 20.4673 23.1479 18.8258 24.2242C18.351 24.5355 17.7815 24.6379 17.2137 24.6379H4.44913C2.35059 24.6379 1.21922 22.8794 0.706884 21.3517C0.420346 20.4973 0.640874 19.5796 1.10096 18.8047Z" fill="#D9D9D9"/>
</mask>
<g mask="url(#mask0_435_3424)">
<path fill-rule="evenodd" clip-rule="evenodd" d="M22.8009 13.7208C22.9326 14.5101 23 15.323 23 16.1417C23 16.8567 22.9417 17.551 22.8281 18.2199C22.4098 20.6928 21.2577 22.9101 19.5656 24.5044C17.8957 26.0783 15.6889 27.0459 13.1393 27.0459C12.5824 27.0459 12.0173 27.0018 11.4453 26.9097L11.1738 26.9127C10.3947 27.0596 9.64468 27.1301 8.92685 27.1301C6.33904 27.1301 4.20364 26.2017 2.6031 24.7033C0.979437 23.1843 -0.107364 21.0757 -0.571843 18.7458C-0.739739 17.9046 -0.825195 17.03 -0.825195 16.1407C-0.825195 15.4229 -0.784981 14.7119 -0.701535 14.0175C2.91074 16.3572 7.09709 18.3081 11.8203 15.4856C15.8418 13.0832 19.7104 13.0215 22.8009 13.7208Z" fill="url(#paint0_linear_435_3424)"/>
<path fill-rule="evenodd" clip-rule="evenodd" d="M-1.14884 13.7208C-1.28155 14.5101 -1.3479 15.323 -1.3479 16.1417C-1.3479 16.8567 -1.28959 17.551 -1.17598 18.2199C-0.757751 20.6928 0.394399 22.9101 2.08643 24.5044C3.75634 26.0783 5.96312 27.0459 8.51273 27.0459C9.0697 27.0459 9.63472 27.0018 10.2068 26.9097L10.4782 26.9127C11.2574 27.0596 12.0074 27.1301 12.7252 27.1301C15.313 27.1301 17.4484 26.2017 19.049 24.7033C20.6726 23.1843 21.7594 21.0757 22.2239 18.7458C22.3918 17.9046 22.4773 17.03 22.4773 16.1407C22.4773 15.4229 22.437 14.7119 22.3536 14.0175C18.7413 16.3572 14.555 18.3081 9.83177 15.4856C5.81031 13.0832 1.94166 13.0215 -1.14884 13.7208Z" fill="url(#paint1_linear_435_3424)"/>
</g>
<path fill-rule="evenodd" clip-rule="evenodd" d="M7.34781 7.09226V1.73926H9.08696V7.09226C9.08696 8.03904 8.8142 8.96577 8.30132 9.7616L2.25557 19.1426C0.88817 21.2644 2.41143 24.0582 4.93564 24.0582H16.7166C19.2408 24.0582 20.764 21.2644 19.3966 19.1426L13.3509 9.7616C12.838 8.96578 12.5652 8.03904 12.5652 7.09226V1.73926H14.3044V7.09226C14.3044 7.70488 14.4809 8.30454 14.8127 8.81948L20.8585 18.2005C22.9717 21.4796 20.6176 25.7974 16.7166 25.7974H4.93564C1.03459 25.7974 -1.31954 21.4796 0.793715 18.2005L6.83946 8.81948C7.17133 8.30453 7.34781 7.70489 7.34781 7.09226Z" fill="white"/>
<path d="M5.60864 0.869571C5.60864 0.38932 5.99796 0 6.47821 0H15.1739C15.6542 0 16.0435 0.38932 16.0435 0.869571C16.0435 1.34982 15.6542 1.73914 15.1739 1.73914H6.47821C5.99796 1.73914 5.60864 1.34982 5.60864 0.869571Z" fill="white"/>
<defs>
<linearGradient id="paint0_linear_435_3424" x1="19.8115" y1="11.0146" x2="0.877779" y2="14.8036" gradientUnits="userSpaceOnUse">
<stop offset="0.0829211" stop-color="#7F31FF"/>
<stop offset="0.585828" stop-color="white"/>
</linearGradient>
<linearGradient id="paint1_linear_435_3424" x1="18.9263" y1="22.203" x2="0.554135" y2="14.8137" gradientUnits="userSpaceOnUse">
<stop stop-color="#8646EE"/>
<stop offset="1" stop-color="#B98DFF"/>
</linearGradient>
</defs>
</svg>
