<svg width="15" height="15" viewBox="0 0 15 15" fill="none" xmlns="http://www.w3.org/2000/svg">
<path d="M12.2328 0.501405C12.38 0.345765 12.5569 0.221216 12.7531 0.135122C12.9493 0.049027 13.1607 0.00313397 13.3749 0.000154977C13.5891 -0.00282402 13.8018 0.0371715 14.0003 0.117778C14.1988 0.198384 14.3791 0.317964 14.5306 0.469451C14.682 0.620938 14.8016 0.801257 14.8822 0.999749C14.9628 1.19824 15.0028 1.41088 14.9998 1.62509C14.9969 1.83931 14.951 2.05075 14.8649 2.24692C14.7788 2.4431 14.6542 2.62002 14.4986 2.76724L9.80247 7.46346C9.79625 7.46966 9.79131 7.47703 9.78795 7.48515C9.78458 7.49326 9.78285 7.50196 9.78285 7.51074C9.78285 7.51953 9.78458 7.52822 9.78795 7.53634C9.79131 7.54445 9.79625 7.55182 9.80247 7.55803L14.4986 12.2542C14.6494 12.4026 14.7694 12.5794 14.8516 12.7744C14.9338 12.9693 14.9765 13.1786 14.9774 13.3902C14.9783 13.6018 14.9373 13.8115 14.8568 14.0071C14.7762 14.2028 14.6577 14.3805 14.5081 14.5301C14.3585 14.6798 14.1808 14.7983 13.9852 14.8789C13.7896 14.9595 13.5799 15.0006 13.3683 14.9997C13.1568 14.9989 12.9474 14.9562 12.7525 14.874C12.5575 14.7919 12.3807 14.672 12.2323 14.5211L7.53614 9.82493C7.52993 9.81871 7.52257 9.81377 7.51445 9.81041C7.50634 9.80704 7.49764 9.80531 7.48886 9.80531C7.48007 9.80531 7.47137 9.80704 7.46326 9.81041C7.45515 9.81377 7.44778 9.81871 7.44157 9.82493L2.74544 14.5211C2.59707 14.672 2.4203 14.792 2.22534 14.8741C2.03038 14.9563 1.82107 14.9991 1.60949 15C1.39792 15.0009 1.18826 14.9599 0.992612 14.8793C0.796965 14.7988 0.619202 14.6803 0.469576 14.5307C0.31995 14.3811 0.201423 14.2034 0.12083 14.0077C0.0402382 13.8121 -0.000823965 13.6024 1.25276e-05 13.3909C0.00084902 13.1793 0.0435677 12.97 0.125704 12.775C0.207841 12.58 0.32777 12.4032 0.478574 12.2548L5.17471 7.55856C5.18093 7.55236 5.18587 7.54499 5.18923 7.53687C5.1926 7.52876 5.19433 7.52006 5.19433 7.51128C5.19433 7.50249 5.1926 7.49379 5.18923 7.48568C5.18587 7.47757 5.18093 7.4702 5.17471 7.46399L0.478574 2.76777C0.182003 2.4664 0.0165308 2.06004 0.0182025 1.63721C0.0198741 1.21439 0.188554 0.809349 0.487499 0.510328C0.786444 0.211307 1.19143 0.0425292 1.61425 0.0407578C2.03707 0.0389865 2.44346 0.204365 2.7449 0.500871L7.44104 5.19709C7.44724 5.20331 7.45461 5.20825 7.46273 5.21161C7.47084 5.21498 7.47954 5.21671 7.48832 5.21671C7.49711 5.21671 7.5058 5.21498 7.51392 5.21161C7.52203 5.20825 7.5294 5.20331 7.5356 5.19709L12.2317 0.500871L12.2328 0.501405Z" fill="#F92F60"/>
</svg>
