<svg width="16" height="12" viewBox="0 0 16 12" fill="none" xmlns="http://www.w3.org/2000/svg">
<g clip-path="url(#clip0_3_1767)">
<path d="M8 3C7.46957 3 6.96086 3.15804 6.58579 3.43934C6.21071 3.72064 6 4.10218 6 4.5V10.5C6 10.8978 6.21071 11.2794 6.58579 11.5607C6.96086 11.842 7.46957 12 8 12C8.53043 12 9.03914 11.842 9.41421 11.5607C9.78929 11.2794 10 10.8978 10 10.5V4.5C10 4.10218 9.78929 3.72064 9.41421 3.43934C9.03914 3.15804 8.53043 3 8 3ZM8.66667 10.5C8.66667 10.6326 8.59643 10.7598 8.4714 10.8536C8.34638 10.9473 8.17681 11 8 11C7.82319 11 7.65362 10.9473 7.5286 10.8536C7.40357 10.7598 7.33333 10.6326 7.33333 10.5V4.5C7.33333 4.36739 7.40357 4.24021 7.5286 4.14645C7.65362 4.05268 7.82319 4 8 4C8.17681 4 8.34638 4.05268 8.4714 4.14645C8.59643 4.24021 8.66667 4.36739 8.66667 4.5V10.5Z" fill="#8646EE"/>
<path d="M14 0C13.4696 0 12.9609 0.158035 12.5858 0.43934C12.2107 0.720644 12 1.10218 12 1.5V10.5C12 10.8978 12.2107 11.2794 12.5858 11.5607C12.9609 11.842 13.4696 12 14 12C14.5304 12 15.0391 11.842 15.4142 11.5607C15.7893 11.2794 16 10.8978 16 10.5V1.5C16 1.10218 15.7893 0.720644 15.4142 0.43934C15.0391 0.158035 14.5304 0 14 0V0ZM14.6667 10.5C14.6667 10.6326 14.5964 10.7598 14.4714 10.8536C14.3464 10.9473 14.1768 11 14 11C13.8232 11 13.6536 10.9473 13.5286 10.8536C13.4036 10.7598 13.3333 10.6326 13.3333 10.5V1.5C13.3333 1.36739 13.4036 1.24021 13.5286 1.14645C13.6536 1.05268 13.8232 1 14 1C14.1768 1 14.3464 1.05268 14.4714 1.14645C14.5964 1.24021 14.6667 1.36739 14.6667 1.5V10.5Z" fill="#8646EE"/>
<path d="M2 6C1.46957 6 0.960859 6.15804 0.585786 6.43934C0.210714 6.72064 0 7.10218 0 7.5L0 10.5C0 10.8978 0.210714 11.2794 0.585786 11.5607C0.960859 11.842 1.46957 12 2 12C2.53043 12 3.03914 11.842 3.41421 11.5607C3.78929 11.2794 4 10.8978 4 10.5V7.5C4 7.10218 3.78929 6.72064 3.41421 6.43934C3.03914 6.15804 2.53043 6 2 6Z" fill="#8646EE"/>
</g>
<defs>
<clipPath id="clip0_3_1767">
<rect width="16" height="12" fill="white"/>
</clipPath>
</defs>
</svg>
