<svg width="7" height="14" viewBox="0 0 7 14" fill="none" xmlns="http://www.w3.org/2000/svg">
<path d="M6.71134 13.7092C6.80281 13.6163 6.87541 13.5057 6.92495 13.3839C6.97449 13.262 7 13.1313 7 12.9993C7 12.8673 6.97449 12.7366 6.92495 12.6148C6.87541 12.4929 6.80281 12.3824 6.71134 12.2894L2.2419 7.70992C2.15044 7.61697 2.07784 7.50638 2.02829 7.38453C1.97875 7.26269 1.95324 7.132 1.95324 7C1.95324 6.868 1.97875 6.73731 2.02829 6.61547C2.07784 6.49362 2.15044 6.38303 2.2419 6.29008L6.71134 1.7106C6.80281 1.61765 6.87541 1.50706 6.92495 1.38521C6.97449 1.26337 7 1.13268 7 1.00068C7 0.868682 6.97449 0.737991 6.92495 0.616146C6.87541 0.4943 6.80281 0.383712 6.71134 0.29076C6.5285 0.10453 6.28117 -3.14211e-08 6.02336 -4.26903e-08C5.76555 -5.39594e-08 5.51822 0.10453 5.33538 0.290759L0.856181 4.88024C0.30794 5.44268 -5.74909e-07 6.20509 -6.09656e-07 7C-6.44402e-07 7.79491 0.30794 8.55732 0.85618 9.11976L5.33538 13.7092C5.51822 13.8955 5.76555 14 6.02336 14C6.28117 14 6.5285 13.8955 6.71134 13.7092V13.7092Z" fill="#162849"/>
</svg>
