<svg width="4" height="11" viewBox="0 0 4 11" fill="none" xmlns="http://www.w3.org/2000/svg">
<path d="M3.28766 8.75961C3.28766 9.23067 3.16536 9.60661 2.92077 9.88744C2.66713 10.1773 2.35912 10.3223 1.99677 10.3223C1.63441 10.3223 1.33094 10.1773 1.08635 9.88744C0.832702 9.60661 0.705878 9.23067 0.705878 8.75961L1.79294 3.5281L2.20059 3.5281L3.28766 8.75961ZM1.99677 0.470732C2.26854 0.470732 2.5086 0.574908 2.71695 0.783263C2.91625 1.00068 3.01589 1.25885 3.01589 1.5578C3.01589 1.85674 2.91625 2.11039 2.71695 2.31874C2.5086 2.53616 2.26854 2.64486 1.99677 2.64486C1.725 2.64486 1.48947 2.53616 1.29018 2.31874C1.08182 2.11039 0.977644 1.85674 0.977644 1.5578C0.977645 1.25885 1.08182 1.00068 1.29018 0.783263C1.48947 0.574908 1.725 0.470732 1.99677 0.470732Z" fill="#8646EE"/>
</svg>
