<svg width="27" height="21" viewBox="0 0 27 21" fill="none" xmlns="http://www.w3.org/2000/svg">
<path d="M2.57897 11.2022C2.08609 10.4555 1.71024 9.7309 1.45271 9.04878L19.421 11.2022C18.6394 12.3845 17.5469 13.6435 16.162 14.941C13.8586 17.0972 11.5769 18.5874 11.4975 18.6391L11.4973 18.6392L11 18.9629L10.5026 18.6392L10.4948 18.6341L10.4868 18.6291C10.4882 18.63 10.4517 18.6066 10.374 18.5548C10.3005 18.5058 10.1962 18.4354 10.0656 18.3451C9.80429 18.1646 9.4387 17.9055 9.00319 17.5802C8.13066 16.9283 6.98525 16.0162 5.8381 14.9411L5.83799 14.941C4.45305 13.6435 3.36057 12.3845 2.57897 11.2022ZM19.3143 2.66861C19.8372 3.18761 20.2561 3.80581 20.5471 4.48902L1.45542 4.48902C1.7453 3.80565 2.16409 3.18759 2.68738 2.66947L2.68873 2.66813C3.21693 2.14315 3.82995 1.73237 4.51026 1.44656L4.51135 1.4461C5.2147 1.14962 5.95854 1.00002 6.73063 1.00002C7.80019 1.00002 8.84281 1.29706 9.74912 1.85813L9.74915 1.85814C9.96604 1.99241 10.1715 2.13947 10.3658 2.29939L11.0013 2.82248L11.6368 2.29939C11.8311 2.13947 12.0365 1.99241 12.2534 1.85814L12.2534 1.85813C13.1597 1.29706 14.2023 1.00002 15.2719 1.00002L15.2742 1.00002C16.0346 0.998239 16.7881 1.14973 17.4912 1.44609L17.4925 1.44664C18.1701 1.73115 18.7884 2.14549 19.3135 2.66783L19.3143 2.66861ZM6.73063 1.81642e-05C5.82659 1.81642e-05 4.95057 0.175746 4.12293 0.524616L15.2719 1.81642e-05C14.0164 1.81642e-05 12.7915 0.348889 11.727 1.00787C11.4724 1.1655 11.2305 1.33865 11.0013 1.5273C10.7721 1.33865 10.5301 1.1655 10.2755 1.00787C9.21101 0.348889 7.9861 1.81642e-05 6.73063 1.81642e-05ZM1 6.73193C1 5.95392 1.15379 5.20032 1.45539 4.48909L1.45268 9.04871C1.146 8.23492 1 7.4576 1 6.73193Z" stroke="#FF4545" stroke-width="2"/>
<circle cx="19" cy="13" r="8" fill="#FF4545"/>
<path d="M22.4167 12.9167H20.0833V10.5833C20.0833 10.4286 20.0219 10.2803 19.9125 10.1709C19.8031 10.0615 19.6547 10 19.5 10C19.3453 10 19.1969 10.0615 19.0875 10.1709C18.9781 10.2803 18.9167 10.4286 18.9167 10.5833V12.9167H16.5833C16.4286 12.9167 16.2803 12.9781 16.1709 13.0875C16.0615 13.1969 16 13.3453 16 13.5C16 13.6547 16.0615 13.8031 16.1709 13.9125C16.2803 14.0219 16.4286 14.0833 16.5833 14.0833H18.9167V16.4167C18.9167 16.5714 18.9781 16.7197 19.0875 16.8291C19.1969 16.9385 19.3453 17 19.5 17C19.6547 17 19.8031 16.9385 19.9125 16.8291C20.0219 16.7197 20.0833 16.5714 20.0833 16.4167V14.0833H22.4167C22.5714 14.0833 22.7197 14.0219 22.8291 13.9125C22.9385 13.8031 23 13.6547 23 13.5C23 13.3453 22.9385 13.1969 22.8291 13.0875C22.7197 12.9781 22.5714 12.9167 22.4167 12.9167Z" fill="white"/>
</svg>
