<svg width="20" height="20" viewBox="0 0 20 20" fill="none" xmlns="http://www.w3.org/2000/svg">
<path d="M12.6748 0.226984C12.958 0.0842209 13.292 0.084221 13.5752 0.226985L19.4502 3.18907C19.7873 3.35905 20 3.70443 20 4.082V10.1814C20 10.6469 19.5093 10.9491 19.0936 10.7395C18.8829 10.6332 18.75 10.4174 18.75 10.1814V6.49855C18.75 5.7537 17.9649 5.27029 17.2998 5.60562L14.2998 7.11817C13.9627 7.28815 13.75 7.63353 13.75 8.0111V9.55116C13.75 9.78714 13.6171 10.003 13.4064 10.1092C12.9907 10.3188 12.5 10.0167 12.5 9.55116V8.0111C12.5 7.63353 12.2873 7.28815 11.9502 7.11817L8.498 5.37762C8.0403 5.14686 7.5 5.47953 7.5 5.99212V6.09474C7.5 6.56026 7.00931 6.8624 6.59362 6.65282C6.38291 6.54658 6.25 6.33072 6.25 6.09474V4.082C6.25 3.70443 6.46266 3.35905 6.7998 3.18907L12.6748 0.226984ZM12.7531 6.11521C12.987 6.23287 13.2628 6.23244 13.4963 6.11407C14.0801 5.81807 14.1024 4.99242 13.5355 4.66523L10.7614 3.06418C10.4935 2.90956 10.1657 2.90061 9.88975 3.0404C9.21941 3.37997 9.22071 4.33779 9.89197 4.67555L12.7531 6.11521ZM15.832 4.54369C16.0624 4.67637 16.3441 4.6842 16.5815 4.5645C17.1601 4.2728 17.1604 3.44687 16.5821 3.15471L13.4383 1.56646C13.2413 1.46695 13.0088 1.46717 12.812 1.56705C12.3209 1.8163 12.3026 2.51106 12.7798 2.7859L15.832 4.54369ZM11.25 10.8116C11.25 11.0476 11.1171 11.2635 10.9064 11.3697L10.0044 11.8245C10.0024 11.8255 10 11.824 10 11.8218C10 11.8195 9.99762 11.818 9.9956 11.8191L6.7998 13.4303C6.46266 13.6003 6.25 13.9457 6.25 14.3233V16.5602C6.25 17.3059 7.03686 17.7893 7.70207 17.4522L9.08226 16.7527C9.50269 16.5396 10 16.8451 10 17.3164C10 17.555 9.8656 17.7733 9.65252 17.8808L6.07598 19.684C5.79239 19.827 5.45773 19.8267 5.17434 19.6834L0.548554 17.343C0.212099 17.1728 0 16.8278 0 16.4507V11.0244C0 10.6468 0.212658 10.3014 0.549799 10.1315L5.1748 7.79961C5.45796 7.65685 5.79204 7.65685 6.0752 7.79961L10.8983 10.2313C11.114 10.3401 11.25 10.561 11.25 10.8026V10.8116ZM3.54793 17.4522C4.21314 17.7893 5 17.3059 5 16.5602V14.3233C5 13.9457 4.78734 13.6003 4.4502 13.4303L2.7002 12.548C2.03511 12.2127 1.25 12.6961 1.25 13.4409V15.6733C1.25 16.0501 1.46182 16.3949 1.79793 16.5652L3.54793 17.4522ZM5.17577 12.3886C5.4584 12.5307 5.7916 12.5307 6.07423 12.3886L7.45651 11.6936C8.18998 11.3248 8.19112 10.2781 7.45846 9.9077L6.07617 9.20889C5.79249 9.06547 5.45751 9.06547 5.17383 9.20889L3.79154 9.90771C3.05888 10.2781 3.06002 11.3248 3.79349 11.6936L5.17577 12.3886ZM11.25 13.2204C11.25 12.8428 11.4627 12.4974 11.7998 12.3274L15.1748 10.6258C15.458 10.483 15.792 10.483 16.0752 10.6258L19.4502 12.3274C19.7873 12.4974 20 12.8428 20 13.2204V17.1785C20 17.556 19.7873 17.9014 19.4502 18.0714L16.0752 19.773C15.792 19.9158 15.458 19.9158 15.1748 19.773L11.7998 18.0714C11.4627 17.9014 11.25 17.556 11.25 17.1785V13.2204ZM13.5498 17.5455C14.2149 17.8809 15 17.3975 15 16.6526V15.889C15 15.5114 14.7873 15.166 14.4502 14.9961L13.9502 14.744C13.2851 14.4086 12.5 14.8921 12.5 15.6369V16.4005C12.5 16.7781 12.7127 17.1235 13.0498 17.2934L13.5498 17.5455ZM18.2002 17.2934C18.5373 17.1235 18.75 16.7781 18.75 16.4005V15.6369C18.75 14.8921 17.9649 14.4086 17.2998 14.744L16.7998 14.9961C16.4627 15.166 16.25 15.5114 16.25 15.889V16.6526C16.25 17.3975 17.0351 17.8809 17.7002 17.5455L18.2002 17.2934ZM15.1733 13.9515C15.4573 14.0953 15.7927 14.0953 16.0767 13.9515L16.209 13.8846C16.9414 13.5137 16.9397 12.4671 16.206 12.0987L16.0737 12.0323C15.7914 11.8905 15.4586 11.8905 15.1763 12.0323L15.044 12.0987C14.3103 12.4671 14.3086 13.5137 15.041 13.8846L15.1733 13.9515Z" fill="white"/>
</svg>
