<svg width="18" height="18" viewBox="0 0 18 18" fill="none" xmlns="http://www.w3.org/2000/svg">
<g clip-path="url(#clip0_28_796)">
<path d="M18 7.50013C18 7.44538 17.994 7.3908 17.982 7.33738L17.007 2.93638C16.8258 2.10106 16.363 1.35341 15.6961 0.818814C15.0292 0.284214 14.1987 -0.00483744 13.344 0.000127766H4.656C3.80179 -0.00414746 2.97205 0.285219 2.30575 0.819762C1.63945 1.35431 1.17705 2.10156 0.996001 2.93638L0.018001 7.33738C0.0060071 7.3908 -2.97449e-05 7.44538 1.02705e-06 7.50013V8.25013C-0.000604078 8.98032 0.266192 9.68547 0.750001 10.2324V14.2501C0.751192 15.2443 1.14666 16.1975 1.84967 16.9005C2.55267 17.6035 3.5058 17.9989 4.5 18.0001H13.5C14.4942 17.9989 15.4473 17.6035 16.1503 16.9005C16.8533 16.1975 17.2488 15.2443 17.25 14.2501V10.2324C17.7338 9.68547 18.0006 8.98032 18 8.25013V7.50013ZM1.5 7.58188L2.46 3.26188C2.56878 2.76107 2.84626 2.31281 3.24601 1.99211C3.64576 1.67141 4.14352 1.49773 4.656 1.50013H5.25V3.75013C5.25 3.94904 5.32902 4.13981 5.46967 4.28046C5.61032 4.42111 5.80109 4.50013 6 4.50013C6.19891 4.50013 6.38968 4.42111 6.53033 4.28046C6.67098 4.13981 6.75 3.94904 6.75 3.75013V1.50013H11.25V3.75013C11.25 3.94904 11.329 4.13981 11.4697 4.28046C11.6103 4.42111 11.8011 4.50013 12 4.50013C12.1989 4.50013 12.3897 4.42111 12.5303 4.28046C12.671 4.13981 12.75 3.94904 12.75 3.75013V1.50013H13.344C13.8565 1.49773 14.3542 1.67141 14.754 1.99211C15.1537 2.31281 15.4312 2.76107 15.54 3.26188L16.5 7.58188V8.25013C16.5 8.64795 16.342 9.02948 16.0607 9.31079C15.7794 9.59209 15.3978 9.75013 15 9.75013H14.25C13.8522 9.75013 13.4706 9.59209 13.1893 9.31079C12.908 9.02948 12.75 8.64795 12.75 8.25013C12.75 8.05122 12.671 7.86045 12.5303 7.7198C12.3897 7.57915 12.1989 7.50013 12 7.50013C11.8011 7.50013 11.6103 7.57915 11.4697 7.7198C11.329 7.86045 11.25 8.05122 11.25 8.25013C11.25 8.64795 11.092 9.02948 10.8107 9.31079C10.5294 9.59209 10.1478 9.75013 9.75 9.75013H8.25C7.85218 9.75013 7.47065 9.59209 7.18934 9.31079C6.90804 9.02948 6.75 8.64795 6.75 8.25013C6.75 8.05122 6.67098 7.86045 6.53033 7.7198C6.38968 7.57915 6.19891 7.50013 6 7.50013C5.80109 7.50013 5.61032 7.57915 5.46967 7.7198C5.32902 7.86045 5.25 8.05122 5.25 8.25013C5.25 8.64795 5.09197 9.02948 4.81066 9.31079C4.52936 9.59209 4.14783 9.75013 3.75 9.75013H3C2.60218 9.75013 2.22065 9.59209 1.93934 9.31079C1.65804 9.02948 1.5 8.64795 1.5 8.25013V7.58188ZM13.5 16.5001H4.5C3.90326 16.5001 3.33097 16.2631 2.90901 15.8411C2.48705 15.4192 2.25 14.8469 2.25 14.2501V11.1549C2.49495 11.2183 2.74697 11.2503 3 11.2501H3.75C4.17586 11.2504 4.59687 11.1597 4.98488 10.9842C5.37289 10.8087 5.71897 10.5524 6 10.2324C6.28103 10.5524 6.62711 10.8087 7.01512 10.9842C7.40314 11.1597 7.82414 11.2504 8.25 11.2501H9.75C10.1759 11.2504 10.5969 11.1597 10.9849 10.9842C11.3729 10.8087 11.719 10.5524 12 10.2324C12.281 10.5524 12.6271 10.8087 13.0151 10.9842C13.4031 11.1597 13.8241 11.2504 14.25 11.2501H15C15.253 11.2503 15.5051 11.2183 15.75 11.1549V14.2501C15.75 14.8469 15.5129 15.4192 15.091 15.8411C14.669 16.2631 14.0967 16.5001 13.5 16.5001Z" fill="white"/>
</g>
<defs>
<clipPath id="clip0_28_796">
<rect width="18" height="18" fill="white"/>
</clipPath>
</defs>
</svg>
