<svg width="16" height="17" viewBox="0 0 16 17" fill="none" xmlns="http://www.w3.org/2000/svg">
<path fill-rule="evenodd" clip-rule="evenodd" d="M9.47841 9.90177C9.67435 9.7022 9.8545 9.48197 10.014 9.25774C10.238 8.94269 10.6604 8.81487 10.9998 8.99999C11.3392 9.18512 11.4667 9.61239 11.2498 9.93243C11.0294 10.2577 10.77 10.5845 10.4774 10.8826C10.0069 11.3618 9.41503 11.8023 8.72497 12.0083C8.00951 12.2218 7.22676 12.1697 6.45546 11.7181C5.84595 11.3612 5.27466 10.7737 4.74067 9.93819C4.53248 9.61243 4.66039 9.18512 4.99978 8.99999C5.33917 8.81487 5.76068 8.94279 5.97314 9.26577C6.40571 9.92337 6.81166 10.3044 7.16285 10.51C7.5853 10.7573 7.96506 10.774 8.32459 10.6667C8.70953 10.5518 9.10513 10.282 9.47841 9.90177Z" fill="white"/>
<rect x="0.7" y="4.7" width="14.6" height="11.6" rx="2.3" stroke="white" stroke-width="1.4"/>
<path d="M3.43683 1.31768L1.57016 3.31768C0.973558 3.9569 1.42684 5 2.30122 5H13.6988C14.5732 5 15.0264 3.9569 14.4298 3.31768L12.5632 1.31768C12.374 1.11505 12.1093 1 11.8321 1H4.16789C3.8907 1 3.62596 1.11505 3.43683 1.31768Z" stroke="white" stroke-width="1.4"/>
</svg>
