<svg width="295" height="1024" viewBox="0 0 295 1024" fill="none" xmlns="http://www.w3.org/2000/svg">
<rect width="295" height="1024" fill="#312A63"/>
<mask id="mask0_889_375" style="mask-type:alpha" maskUnits="userSpaceOnUse" x="0" y="0" width="295" height="1024">
<rect width="295" height="1024" fill="#51459F"/>
</mask>
<g mask="url(#mask0_889_375)">
<path d="M-41.1198 1057.5C-59.7267 1029.48 -65.0059 978.46 62.7328 998.469C222.406 1023.48 -106.677 712.84 98.4321 696.332C303.541 679.825 -24.8928 450.721 194.496 476.733C370.007 497.543 374.94 356.346 355.467 283.146M-74.8718 522.754C-91.3152 448.387 -90.4497 302.955 44.5586 316.161C213.319 332.668 23.139 83.0555 194.496 98.0623C331.581 110.068 333.399 38.3687 317.172 1.01851M249.667 1068C208.559 1006.64 146.464 888.419 226.95 906.427C327.557 928.937 143.868 768.865 249.667 747.355M-62.5393 158.089C-58.6449 132.078 -37.6147 80.5544 15.3501 82.5553C81.5561 85.0564 -45.0142 -38.4993 54.9439 -40" stroke="#40377A"/>
</g>
</svg>
