<svg width="12" height="14" viewBox="0 0 12 14" fill="none" xmlns="http://www.w3.org/2000/svg">
<mask id="mask0_124_108" style="mask-type:alpha" maskUnits="userSpaceOnUse" x="0" y="5" width="12" height="9">
<path d="M0.592505 10.1198L2.58355 6.76643C2.95303 6.14414 3.60682 5.74532 4.32921 5.70154L6.71145 5.55716C7.66862 5.49915 8.5766 6.06436 9.05982 6.89263C9.43435 7.53459 9.95861 8.36325 10.6617 9.35924C11.9548 11.1912 11.0146 12.457 10.1312 13.0363C9.87568 13.2038 9.5692 13.2589 9.26364 13.2589H2.39433C1.265 13.2589 0.656144 12.3126 0.380431 11.4905C0.226229 11.0307 0.344907 10.5368 0.592505 10.1198Z" fill="#D9D9D9"/>
</mask>
<g mask="url(#mask0_124_108)">
<path fill-rule="evenodd" clip-rule="evenodd" d="M12.2705 7.38379C12.3414 7.80859 12.3776 8.24603 12.3776 8.68664C12.3776 9.07138 12.3462 9.44506 12.2851 9.80503C12.06 11.1358 11.44 12.329 10.5294 13.1871C9.63075 14.034 8.44317 14.5547 7.07109 14.5547C6.77135 14.5547 6.46728 14.531 6.15943 14.4815L6.01335 14.4831C5.59405 14.5621 5.19043 14.6001 4.80413 14.6001C3.41149 14.6001 2.26232 14.1004 1.40098 13.2941C0.527198 12.4766 -0.0576666 11.3419 -0.307627 10.088C-0.397981 9.63532 -0.44397 9.16467 -0.44397 8.68611C-0.44397 8.29979 -0.422328 7.91716 -0.377422 7.54348C1.56654 8.80259 3.81943 9.85246 6.36124 8.33352C8.5254 7.04068 10.6073 7.00748 12.2705 7.38379Z" fill="url(#paint0_linear_124_108)"/>
<path fill-rule="evenodd" clip-rule="evenodd" d="M-0.618094 7.38382C-0.689511 7.80862 -0.72522 8.24606 -0.72522 8.68667C-0.72522 9.07141 -0.693839 9.44509 -0.632702 9.80506C-0.407629 11.1358 0.212404 12.3291 1.12298 13.1871C2.02164 14.0341 3.20923 14.5548 4.58131 14.5548C4.88104 14.5548 5.18511 14.5311 5.49296 14.4815L5.63904 14.4831C6.05835 14.5622 6.46197 14.6001 6.84827 14.6001C8.24091 14.6001 9.39008 14.1005 10.2514 13.2941C11.1252 12.4766 11.7101 11.3419 11.96 10.0881C12.0504 9.63535 12.0964 9.1647 12.0964 8.68614C12.0964 8.29982 12.0747 7.91719 12.0298 7.54351C10.0859 8.80262 7.83296 9.85249 5.29115 8.33355C3.12699 7.04071 1.04507 7.00751 -0.618094 7.38382Z" fill="url(#paint1_linear_124_108)"/>
</g>
<path fill-rule="evenodd" clip-rule="evenodd" d="M3.95425 3.81671V0.935974H4.89017V3.81671C4.89017 4.32622 4.74339 4.82495 4.46738 5.25322L1.21384 10.3016C0.477971 11.4435 1.29772 12.947 2.65613 12.947H8.99606C10.3545 12.947 11.1742 11.4435 10.4384 10.3016L7.18482 5.25322C6.90881 4.82495 6.76202 4.32622 6.76202 3.81671V0.935974H7.69794V3.81671C7.69794 4.14639 7.79292 4.4691 7.97152 4.74622L11.2251 9.79463C12.3623 11.5593 11.0954 13.8829 8.99606 13.8829H2.65613C0.556768 13.8829 -0.710116 11.5593 0.42714 9.79463L3.68068 4.74622C3.85927 4.4691 3.95425 4.14639 3.95425 3.81671Z" fill="#8646EE"/>
<path d="M3.01843 0.468023C3.01843 0.209575 3.22795 6.10352e-05 3.48639 6.10352e-05H8.16602C8.42446 6.10352e-05 8.63398 0.209575 8.63398 0.468023V0.468023C8.63398 0.726471 8.42446 0.935985 8.16602 0.935985H3.48639C3.22795 0.935985 3.01843 0.726471 3.01843 0.468023V0.468023Z" fill="#8646EE"/>
<defs>
<linearGradient id="paint0_linear_124_108" x1="10.6618" y1="5.92749" x2="0.472491" y2="7.96655" gradientUnits="userSpaceOnUse">
<stop offset="0.0829211" stop-color="#7F31FF"/>
<stop offset="0.585828" stop-color="white"/>
</linearGradient>
<linearGradient id="paint1_linear_124_108" x1="10.1854" y1="11.9485" x2="0.298366" y2="7.97197" gradientUnits="userSpaceOnUse">
<stop stop-color="#8646EE"/>
<stop offset="1" stop-color="#B98DFF"/>
</linearGradient>
</defs>
</svg>
