<svg width="17" height="18" viewBox="0 0 17 18" fill="none" xmlns="http://www.w3.org/2000/svg">
<path d="M8.50029 5.78964C7.66129 5.78964 6.85665 6.12818 6.26338 6.73078C5.67011 7.33338 5.33682 8.15068 5.33682 9.00289C5.33682 9.8551 5.67011 10.6724 6.26338 11.275C6.85665 11.8776 7.66129 12.2161 8.50029 12.2161C9.3393 12.2161 10.1439 11.8776 10.7372 11.275C11.3305 10.6724 11.6638 9.8551 11.6638 9.00289C11.6638 8.15068 11.3305 7.33338 10.7372 6.73078C10.1439 6.12818 9.3393 5.78964 8.50029 5.78964ZM6.60221 9.00289C6.60221 8.49157 6.80219 8.00118 7.15814 7.63962C7.5141 7.27806 7.99689 7.07494 8.50029 7.07494C9.0037 7.07494 9.48648 7.27806 9.84244 7.63962C10.1984 8.00118 10.3984 8.49157 10.3984 9.00289C10.3984 9.51422 10.1984 10.0046 9.84244 10.3662C9.48648 10.7277 9.0037 10.9308 8.50029 10.9308C7.99689 10.9308 7.5141 10.7277 7.15814 10.3662C6.80219 10.0046 6.60221 9.51422 6.60221 9.00289ZM6.50098 17.7609C7.15582 17.9197 7.82711 18 8.50029 18C9.17286 17.999 9.843 17.9181 10.4971 17.759C10.685 17.714 10.8546 17.611 10.9826 17.4642C11.1107 17.3174 11.1908 17.1339 11.212 16.939L11.3601 15.5701C11.3744 15.4208 11.4234 15.2771 11.5032 15.1508C11.583 15.0246 11.6912 14.9194 11.819 14.8441C11.9467 14.7687 12.0902 14.7253 12.2377 14.7175C12.3852 14.7096 12.5324 14.7376 12.6672 14.799L13.9041 15.3491C14.0812 15.4282 14.2781 15.4494 14.4676 15.4097C14.6571 15.3699 14.8296 15.2713 14.9614 15.1274C15.8753 14.1271 16.5576 12.932 16.9581 11.6294C17.0156 11.441 17.0139 11.2391 16.9532 11.0517C16.8925 10.8644 16.776 10.7008 16.6197 10.5838L15.5257 9.76443C15.4062 9.67599 15.3091 9.56009 15.2421 9.42619C15.1752 9.2923 15.1404 9.14422 15.1406 8.99405C15.1407 8.84388 15.1759 8.69588 15.2432 8.56216C15.3105 8.42844 15.4079 8.31278 15.5276 8.22464L16.6159 7.40848C16.7731 7.29176 16.8904 7.12798 16.9513 6.94012C17.0122 6.75226 17.0137 6.54973 16.9556 6.36095C16.5557 5.05791 15.8732 3.86258 14.9582 2.86301C14.8259 2.71934 14.653 2.62087 14.4633 2.58116C14.2736 2.54145 14.0765 2.56246 13.8991 2.64129L12.6678 3.1914C12.5329 3.25115 12.386 3.27781 12.239 3.26923C12.0921 3.26064 11.9491 3.21704 11.8218 3.14197C11.6945 3.06689 11.5864 2.96244 11.5062 2.83706C11.4259 2.71168 11.3759 2.56889 11.3601 2.42022L11.2108 1.0578C11.1899 0.860545 11.1086 0.674902 10.9785 0.526996C10.8483 0.37909 10.6757 0.276367 10.4851 0.233282C9.83536 0.0858248 9.17229 0.00764062 8.50662 0C7.837 0.00805369 7.16999 0.0862279 6.51616 0.233282C6.32548 0.275631 6.15277 0.377879 6.02251 0.525527C5.89226 0.673175 5.81107 0.858728 5.79046 1.05587L5.64051 2.41958C5.62413 2.56847 5.57366 2.71139 5.49312 2.8369C5.41259 2.96242 5.30424 3.06703 5.17675 3.14237C5.04926 3.2177 4.90618 3.26167 4.75895 3.27074C4.61173 3.27981 4.46446 3.25374 4.32894 3.19462L3.09772 2.64386C2.92007 2.56722 2.72357 2.54769 2.53467 2.58791C2.34576 2.62812 2.17352 2.72615 2.04112 2.86879C1.12601 3.86934 0.442886 5.06517 0.0418023 6.36867C-0.0152831 6.55696 -0.0133091 6.75863 0.047451 6.94574C0.108211 7.13284 0.22475 7.29613 0.380926 7.41297L1.47232 8.23043C1.59121 8.31929 1.68787 8.43529 1.75448 8.56909C1.82109 8.70288 1.8558 8.85071 1.8558 9.00064C1.8558 9.15057 1.82109 9.2984 1.75448 9.4322C1.68787 9.56599 1.59121 9.682 1.47232 9.77086L0.380926 10.5902C0.22416 10.7073 0.107283 10.8712 0.0466025 11.059C-0.0140778 11.2468 -0.0155347 11.4491 0.042435 11.6378C0.443334 12.9421 1.12646 14.1388 2.04175 15.1402C2.12876 15.2352 2.23426 15.3109 2.35156 15.3623C2.46886 15.4137 2.5954 15.4399 2.72316 15.439C2.8516 15.439 2.97877 15.412 3.09708 15.36L4.334 14.808C4.46891 14.7487 4.61562 14.7225 4.76232 14.7314C4.90903 14.7402 5.05165 14.7839 5.17872 14.8589C5.30579 14.9339 5.41376 15.0381 5.49397 15.1632C5.57417 15.2883 5.62436 15.4308 5.64051 15.5791L5.7892 16.9454C5.81079 17.1393 5.89072 17.3217 6.0181 17.4678C6.14548 17.6138 6.3141 17.7164 6.50098 17.7616V17.7609ZM9.98143 16.5617C9.00522 16.7651 7.99853 16.7651 7.02232 16.5617L6.89894 15.4435C6.83863 14.8965 6.58182 14.3913 6.17767 14.0246C5.86125 13.7416 5.4725 13.5552 5.05627 13.487C4.64005 13.4187 4.21332 13.4714 3.82531 13.639L2.80921 14.0888C2.15373 13.3264 1.64931 12.4427 1.32364 11.4861L2.2246 10.81C2.50295 10.6017 2.72921 10.3298 2.88514 10.0164C3.04107 9.70294 3.12231 9.35666 3.12231 9.00546C3.12231 8.65427 3.04107 8.30799 2.88514 7.99453C2.72921 7.68108 2.50295 7.40923 2.2246 7.2009L1.32554 6.52676C1.65159 5.57111 2.15599 4.68827 2.81111 3.92659L3.82342 4.37645C4.10243 4.5016 4.40418 4.56596 4.70919 4.56539C5.25235 4.56366 5.77594 4.35922 6.18038 3.99095C6.58482 3.62268 6.84191 3.11627 6.90274 2.56803L7.02548 1.44532C7.51519 1.34892 8.01249 1.29751 8.51042 1.29108C9.00518 1.29751 9.49868 1.34892 9.98459 1.44532L10.1023 2.56353C10.1609 3.11213 10.4171 3.61934 10.8216 3.98765C11.1383 4.27238 11.5281 4.45982 11.9456 4.52809C12.3631 4.59636 12.7911 4.54265 13.1797 4.37324L14.192 3.92338C14.8481 4.68485 15.3529 5.568 15.6788 6.52419L14.7785 7.1964C14.4987 7.40401 14.2711 7.67576 14.1143 7.98955C13.9574 8.30334 13.8756 8.65031 13.8756 9.00225C13.8756 9.35419 13.9574 9.70116 14.1143 10.0149C14.2711 10.3287 14.4987 10.6005 14.7785 10.8081L15.6782 11.4829C15.352 12.4373 14.8483 13.3191 14.1945 14.0805L13.1822 13.6306C12.8654 13.4874 12.5198 13.4224 12.1735 13.4409C11.8273 13.4594 11.4903 13.5608 11.19 13.7369C10.8897 13.9131 10.6348 14.1589 10.4459 14.4543C10.2571 14.7496 10.1398 15.0862 10.1035 15.4365L9.98143 16.5611V16.5617Z" fill="white"/>
</svg>
