<svg width="22" height="26" viewBox="0 0 22 26" fill="none" xmlns="http://www.w3.org/2000/svg">
<mask id="mask0_420_615" style="mask-type:alpha" maskUnits="userSpaceOnUse" x="0" y="10" width="21" height="15">
<path d="M1.10108 18.8047L4.80086 12.5735C5.48744 11.4172 6.7023 10.6761 8.04465 10.5947L12.4714 10.3264C14.25 10.2186 15.9372 11.2689 16.8351 12.808C17.5311 14.0009 18.5053 15.5407 19.8117 17.3915C22.2146 20.7956 20.4675 23.1479 18.826 24.2242C18.3511 24.5355 17.7816 24.6379 17.2138 24.6379H4.44926C2.35072 24.6379 1.21934 22.8794 0.707006 21.3517C0.420468 20.4973 0.640996 19.5796 1.10108 18.8047Z" fill="#D9D9D9"/>
</mask>
<g mask="url(#mask0_420_615)">
<path fill-rule="evenodd" clip-rule="evenodd" d="M22.8011 13.7208C22.9329 14.5101 23.0002 15.323 23.0002 16.1417C23.0002 16.8567 22.9419 17.551 22.8283 18.2199C22.4101 20.6928 21.2579 22.9101 19.5659 24.5044C17.896 26.0783 15.6892 27.0459 13.1396 27.0459C12.5826 27.0459 12.0176 27.0018 11.4455 26.9097L11.1741 26.9127C10.3949 27.0596 9.64493 27.1301 8.9271 27.1301C6.33929 27.1301 4.20389 26.2017 2.60335 24.7033C0.979681 23.1843 -0.10712 21.0757 -0.571599 18.7458C-0.739495 17.9046 -0.824951 17.03 -0.824951 16.1407C-0.824951 15.4229 -0.784737 14.7119 -0.701291 14.0175C2.91099 16.3572 7.09733 18.3081 11.8205 15.4856C15.842 13.0832 19.7107 13.0215 22.8011 13.7208Z" fill="url(#paint0_linear_420_615)"/>
<path fill-rule="evenodd" clip-rule="evenodd" d="M-1.14872 13.7208C-1.28142 14.5101 -1.34778 15.323 -1.34778 16.1417C-1.34778 16.8567 -1.28947 17.551 -1.17586 18.2199C-0.757629 20.6928 0.394521 22.9101 2.08655 24.5044C3.75646 26.0783 5.96324 27.0459 8.51285 27.0459C9.06982 27.0459 9.63484 27.0018 10.2069 26.9097L10.4783 26.9127C11.2575 27.0596 12.0075 27.1301 12.7253 27.1301C15.3131 27.1301 17.4485 26.2017 19.0491 24.7033C20.6728 23.1843 21.7596 21.0757 22.224 18.7458C22.3919 17.9046 22.4774 17.03 22.4774 16.1407C22.4774 15.4229 22.4372 14.7119 22.3537 14.0175C18.7414 16.3572 14.5551 18.3081 9.83189 15.4856C5.81043 13.0832 1.94178 13.0215 -1.14872 13.7208Z" fill="url(#paint1_linear_420_615)"/>
</g>
<path fill-rule="evenodd" clip-rule="evenodd" d="M7.34781 7.09226V1.73926H9.08696V7.09226C9.08696 8.03904 8.8142 8.96577 8.30132 9.7616L2.25557 19.1426C0.88817 21.2644 2.41143 24.0582 4.93564 24.0582H16.7166C19.2408 24.0582 20.764 21.2644 19.3966 19.1426L13.3509 9.7616C12.838 8.96578 12.5652 8.03904 12.5652 7.09226V1.73926H14.3044V7.09226C14.3044 7.70488 14.4809 8.30454 14.8127 8.81948L20.8585 18.2005C22.9717 21.4796 20.6176 25.7974 16.7166 25.7974H4.93564C1.03459 25.7974 -1.31954 21.4796 0.793715 18.2005L6.83946 8.81948C7.17133 8.30453 7.34781 7.70489 7.34781 7.09226Z" fill="white"/>
<path d="M5.60876 0.869571C5.60876 0.38932 5.99808 0 6.47834 0H15.174C15.6543 0 16.0436 0.38932 16.0436 0.869571V0.869571C16.0436 1.34982 15.6543 1.73914 15.174 1.73914H6.47834C5.99808 1.73914 5.60876 1.34982 5.60876 0.869571V0.869571Z" fill="white"/>
<defs>
<linearGradient id="paint0_linear_420_615" x1="19.8118" y1="11.0146" x2="0.878024" y2="14.8036" gradientUnits="userSpaceOnUse">
<stop offset="0.0829211" stop-color="#7F31FF"/>
<stop offset="0.585828" stop-color="white"/>
</linearGradient>
<linearGradient id="paint1_linear_420_615" x1="18.9264" y1="22.203" x2="0.554257" y2="14.8137" gradientUnits="userSpaceOnUse">
<stop stop-color="#8646EE"/>
<stop offset="1" stop-color="#B98DFF"/>
</linearGradient>
</defs>
</svg>
